<?xml version="1.0" standalone="no"?>
<svg xmlns="http://www.w3.org/2000/svg" width="326.75703112529925" height="143.55703112529926" viewBox="0 0 326.75703112529925 143.55703112529926"><g fill="#0003cf" color="#0003cf" transform="translate(0 0) scale(1.4355704)"><svg width="100.0" height="100.0" x="0.0" y="0.0" viewBox="0 0 100 100"><path d="M56.3,31.3c10.3,0,19.1,6.2,23,15.1c0.6-0.5,1.1-1,1.6-1.5c5.4-5.4,9.5-11.3,11.5-16.7c2.3-6.1,1.8-11-1.4-14.2  c-2.7-2.7-7.4-4.1-13.4-4.1c-9.2,0-22.9,3.8-33.4,14.3c-4.4,4.4-5.6,5.6-9.1,11.7l-0.5,0.8l3,3C42.1,34.5,48.8,31.3,56.3,31.3z"></path><path d="M23.5,54.1l-0.9,0.8c-1,0.9-2.1,1.8-3.4,2.8c-1.6,1.2-3.7,2.8-6.2,5c-9.7,8.5-7.2,18.8-3,23.6c2.1,2.4,5.4,3.8,8.8,3.8  c0,0,0,0,0,0c3.4,0,6.6-1.3,9-3.8l11-12.2c-3.1-3.1-5.4-6.9-6.6-11.3L23.5,54.1z"></path><path d="M56.3,41.3c-6.1,0-11.4,3.7-13.8,9L57.3,64l0.8-0.5c1.8-1,3.7-2,5.7-3.1c2.5-1.3,5-2.6,7.4-4c0-0.1,0-0.1,0-0.2  C71.3,48,64.5,41.3,56.3,41.3z"></path><path d="M95.5,92L73.8,70.3c3.1-3.8,4.9-8.7,4.9-14c0-12.4-10.1-22.5-22.5-22.5S33.8,43.8,33.8,56.3c0,12.4,10.1,22.5,22.5,22.5  c5.3,0,10.2-1.8,14-4.9L92,95.5L95.5,92z M38.8,56.3c0-9.7,7.8-17.5,17.5-17.5s17.5,7.8,17.5,17.5s-7.8,17.5-17.5,17.5  S38.8,65.9,38.8,56.3z"></path></svg></g><path fill="#ab0a0e" fill-rule="nonzero" d="M5.88 30.32L0 30.80L0 1.04L5.88 0.56L5.88 30.32ZM19.56 31.12Q14.48 31.12 12.42 26.74Q10.36 22.36 10.36 15.40L10.36 15.40Q10.36 8.00 12.56 4Q14.76 0 19.64 0L19.64 0Q28.96 0 28.96 15.24L28.96 15.24Q28.96 22.08 26.86 26.60Q24.76 31.12 19.56 31.12L19.56 31.12ZM19.64 26.40Q21.76 26.40 22.44 23.62Q23.12 20.84 23.12 15.20L23.12 15.20Q23.12 10.68 22.46 7.70Q21.80 4.72 19.64 4.72L19.64 4.72Q17.48 4.72 16.84 7.68Q16.20 10.64 16.20 15.16L16.20 15.16Q16.20 20.84 16.86 23.62Q17.52 26.40 19.64 26.40L19.64 26.40ZM41.60 31.12Q36.44 31.12 34.34 26.44Q32.24 21.76 32.24 14.92L32.24 14.92Q32.24 11.24 33.20 7.84Q34.16 4.44 36.30 2.22Q38.44 0 41.72 0L41.72 0Q44.24 0 46.14 1.56Q48.04 3.12 49.06 5.62Q50.08 8.12 50.08 10.84L50.08 10.84L44.40 11.12Q44.40 9.32 43.80 7.02Q43.20 4.72 41.40 4.72L41.40 4.72Q39.52 4.72 38.80 7.72Q38.08 10.72 38.08 14.92L38.08 14.92Q38.08 20.12 38.88 23.26Q39.68 26.40 41.96 26.40L41.96 26.40Q43.56 26.40 44.24 24.50Q44.92 22.60 45.12 19.88L45.12 19.88L50.12 20.36Q50.12 23.24 49.16 25.70Q48.20 28.16 46.28 29.64Q44.36 31.12 41.60 31.12L41.60 31.12Z" transform="translate(158.558 0) scale(3.356)"></path><path fill="#ab0a0e" fill-rule="nonzero" d="M0 30.56L0 0.56L6.16 0.56Q12.08 0.56 15 4.32Q17.92 8.08 17.92 15.68L17.92 15.68Q17.92 19.72 16.82 23.08Q15.72 26.44 13.32 28.50Q10.92 30.56 7.20 30.56L7.20 30.56L0 30.56ZM5.84 25.88L6.68 25.88Q9.72 25.88 10.90 23.26Q12.08 20.64 12.08 16.80L12.08 16.80L12.08 15.44Q12.08 12.68 11.74 10.54Q11.40 8.40 10.18 6.82Q8.96 5.24 6.52 5.24L6.52 5.24L5.84 5.24L5.84 25.88ZM37.24 30.56L22.16 30.56L22.16 0.56L37.40 0.56L36.92 5.24L28.04 5.24L28.04 12.40L34.36 12.40L34.32 17.44L28.04 17.44L28.04 25.88L37.72 25.88L37.24 30.56ZM51.20 30.32L45.36 30.80L45.36 5.24L39.24 5.24L39.68 0.56L57.28 0.56L56.80 5.24L51.20 5.24L51.20 30.32ZM75.64 30.56L60.56 30.56L60.56 0.56L75.80 0.56L75.32 5.24L66.44 5.24L66.44 12.40L72.76 12.40L72.72 17.44L66.44 17.44L66.44 25.88L76.12 25.88L75.64 30.56ZM88.04 31.12Q82.88 31.12 80.78 26.44Q78.68 21.76 78.68 14.92L78.68 14.92Q78.68 11.24 79.64 7.84Q80.60 4.44 82.74 2.22Q84.88 0 88.16 0L88.16 0Q90.68 0 92.58 1.56Q94.48 3.12 95.50 5.62Q96.52 8.12 96.52 10.84L96.52 10.84L90.84 11.12Q90.84 9.32 90.24 7.02Q89.64 4.72 87.84 4.72L87.84 4.72Q85.96 4.72 85.24 7.72Q84.52 10.72 84.52 14.92L84.52 14.92Q84.52 20.12 85.32 23.26Q86.12 26.40 88.40 26.40L88.40 26.40Q90.00 26.40 90.68 24.50Q91.36 22.60 91.56 19.88L91.56 19.88L96.56 20.36Q96.56 23.24 95.60 25.70Q94.64 28.16 92.72 29.64Q90.80 31.12 88.04 31.12L88.04 31.12ZM110.48 30.32L104.64 30.80L104.64 5.24L98.52 5.24L98.96 0.56L116.56 0.56L116.08 5.24L110.48 5.24L110.48 30.32ZM125.72 30.32L119.84 30.80L119.84 1.04L125.72 0.56L125.72 30.32ZM142.36 30.56L135.92 30.56L128.84 0.80L135.80 0.56L139.76 21.28L143.92 0.80L149.56 0.56L142.36 30.56ZM167.72 30.56L152.64 30.56L152.64 0.56L167.88 0.56L167.40 5.24L158.52 5.24L158.52 12.40L164.84 12.40L164.80 17.44L158.52 17.44L158.52 25.88L168.20 25.88L167.72 30.56Z" transform="translate(158.558 112.438) scale(1)"></path></svg>